<svg xmlns="http://www.w3.org/2000/svg" viewBox="0 0 32 32">
  <!-- Background circle -->
  <circle cx="16" cy="16" r="15" fill="#667eea" stroke="#764ba2" stroke-width="2"/>
  
  <!-- House structure -->
  <path d="M8 15 L16 7 L24 15 L24 23 L8 23 Z" fill="#ffffff" opacity="0.9"/>
  
  <!-- Roof -->
  <path d="M6 15 L16 5 L26 15 L24 15 L16 7 L8 15 Z" fill="#764ba2"/>
  
  <!-- Door -->
  <rect x="14" y="18" width="4" height="5" fill="#667eea"/>
  
  <!-- Windows -->
  <rect x="10" y="16" width="3" height="3" fill="#667eea"/>
  <rect x="19" y="16" width="3" height="3" fill="#667eea"/>
  
  <!-- Chart bars overlay -->
  <g fill="#4ecdc4" opacity="0.7">
    <rect x="10" y="21" width="1" height="2"/>
    <rect x="12" y="20" width="1" height="3"/>
    <rect x="14" y="21" width="1" height="2"/>
    <rect x="16" y="19" width="1" height="4"/>
    <rect x="18" y="20" width="1" height="3"/>
    <rect x="20" y="21" width="1" height="2"/>
  </g>
</svg>
